<svg id="Capa_1" enable-background="new 0 0 512 512" height="48.832px" viewBox="0 0 512 512" width="48.832px" xmlns="http://www.w3.org/2000/svg"><g><path d="m425.361 447.5h-377.861c-17.921 0-32.5-14.579-32.5-32.5v-260.5h331c4.143 0 7.5-3.357 7.5-7.5s-3.357-7.5-7.5-7.5h-331v-42.5c0-17.921 14.579-32.5 32.5-32.5h33.309c4.143 0 7.5-3.357 7.5-7.5s-3.357-7.5-7.5-7.5h-33.309c-26.191 0-47.5 21.309-47.5 47.5v318c0 26.191 21.309 47.5 47.5 47.5h377.861c4.143 0 7.5-3.357 7.5-7.5s-3.357-7.5-7.5-7.5z"/><path d="m464.5 49.5h-348.691c-4.143 0-7.5 3.357-7.5 7.5s3.357 7.5 7.5 7.5h348.691c17.921 0 32.5 14.579 32.5 32.5v42.5h-116c-4.143 0-7.5 3.357-7.5 7.5s3.357 7.5 7.5 7.5h116v260.5c0 17.921-14.579 32.5-32.5 32.5h-4.691c-4.143 0-7.5 3.357-7.5 7.5s3.357 7.5 7.5 7.5h4.691c26.191 0 47.5-21.309 47.5-47.5v-318c0-26.191-21.309-47.5-47.5-47.5z"/><path d="m30.75 101.75c0 12.406 10.094 22.5 22.5 22.5s22.5-10.094 22.5-22.5-10.094-22.5-22.5-22.5-22.5 10.094-22.5 22.5zm30 0c0 4.136-3.364 7.5-7.5 7.5s-7.5-3.364-7.5-7.5 3.364-7.5 7.5-7.5 7.5 3.364 7.5 7.5z"/><path d="m117.5 124.5c12.406 0 22.5-10.094 22.5-22.5s-10.094-22.5-22.5-22.5-22.5 10.094-22.5 22.5 10.094 22.5 22.5 22.5zm0-30c4.136 0 7.5 3.364 7.5 7.5s-3.364 7.5-7.5 7.5-7.5-3.364-7.5-7.5 3.364-7.5 7.5-7.5z"/><path d="m204 102c0-12.406-10.094-22.5-22.5-22.5s-22.5 10.094-22.5 22.5 10.094 22.5 22.5 22.5 22.5-10.094 22.5-22.5zm-30 0c0-4.136 3.364-7.5 7.5-7.5s7.5 3.364 7.5 7.5-3.364 7.5-7.5 7.5-7.5-3.364-7.5-7.5z"/><path d="m459.5 124.5c12.406 0 22.5-10.094 22.5-22.5s-10.094-22.5-22.5-22.5h-213c-12.406 0-22.5 10.094-22.5 22.5s10.094 22.5 22.5 22.5zm-220.5-22.5c0-4.136 3.364-7.5 7.5-7.5h213c4.136 0 7.5 3.364 7.5 7.5s-3.364 7.5-7.5 7.5h-213c-4.136 0-7.5-3.364-7.5-7.5z"/><path d="m455.309 206.904h-143c-4.143 0-7.5 3.357-7.5 7.5s3.357 7.5 7.5 7.5h143c4.143 0 7.5-3.357 7.5-7.5s-3.358-7.5-7.5-7.5z"/><path d="m455.309 246.904h-143c-4.143 0-7.5 3.357-7.5 7.5s3.357 7.5 7.5 7.5h143c4.143 0 7.5-3.357 7.5-7.5s-3.358-7.5-7.5-7.5z"/><path d="m462.809 294.404c0-4.143-3.357-7.5-7.5-7.5h-143c-4.143 0-7.5 3.357-7.5 7.5s3.357 7.5 7.5 7.5h143c4.142 0 7.5-3.357 7.5-7.5z"/><path d="m178 418.404h156c19.575 0 35.5-15.925 35.5-35.5s-15.925-35.5-35.5-35.5h-156c-19.575 0-35.5 15.925-35.5 35.5s15.925 35.5 35.5 35.5zm0-56h156c11.304 0 20.5 9.196 20.5 20.5s-9.196 20.5-20.5 20.5h-156c-11.304 0-20.5-9.196-20.5-20.5s9.196-20.5 20.5-20.5z"/><path d="m196.309 190.404h-110c-20.678 0-37.5 16.822-37.5 37.5v53c0 20.678 16.822 37.5 37.5 37.5h110c20.678 0 37.5-16.822 37.5-37.5v-2.054c0-.001 0-.003 0-.005v-50.94c0-20.678-16.823-37.501-37.5-37.501zm-110.123 112.997 13.231-20.337c2.259-3.472 1.275-8.117-2.197-10.377-3.472-2.258-8.118-1.275-10.377 2.197l-15.074 23.17c-4.865-4.13-7.96-10.285-7.96-17.151v-53c0-12.406 10.094-22.5 22.5-22.5h110c12.406 0 22.5 10.094 22.5 22.5v30.358l-22.749-27.171c-1.4-1.673-3.459-2.652-5.64-2.685-2.161-.073-4.269.887-5.717 2.517l-25.478 28.662-24.587-38.701c-1.368-2.154-3.737-3.465-6.289-3.479-.014 0-.027 0-.041 0-2.536 0-4.902 1.282-6.286 3.41l-16.06 24.686c-2.26 3.472-1.276 8.117 2.196 10.376 3.471 2.26 8.118 1.275 10.376-2.196l9.699-14.907 41.061 64.632h-82.985c-.041-.001-.082-.004-.123-.004zm110.123.003h-9.245l-19.474-30.653 22.548-25.366 28.652 34.224c-.373 12.08-10.311 21.795-22.481 21.795z"/></g></svg>